<svg id="visual" viewBox="0 0 900 600" width="900" height="600" xmlns="http://www.w3.org/2000/svg" xmlns:xlink="http://www.w3.org/1999/xlink" version="1.1"><g stroke-width="1" stroke-linejoin="bevel"><path d="M496 319L569 213L444 244Z" fill="#777777" stroke="#777777"></path><path d="M569 213L443 208L444 244Z" fill="#474747" stroke="#474747"></path><path d="M496 319L636 299L569 213Z" fill="#ababab" stroke="#ababab"></path><path d="M443 208L370 242L444 244Z" fill="#5e5e5e" stroke="#5e5e5e"></path><path d="M444 244L370 242L496 319Z" fill="#c6c6c6" stroke="#c6c6c6"></path><path d="M636 299L645 189L569 213Z" fill="#ffffff" stroke="#ffffff"></path><path d="M463 0L380 60L443 208Z" fill="#303030" stroke="#303030"></path><path d="M636 299L685 265L645 189Z" fill="#1b1b1b" stroke="#1b1b1b"></path><path d="M277 221L322 258L370 242Z" fill="#5e5e5e" stroke="#5e5e5e"></path><path d="M370 242L437 438L496 319Z" fill="#e2e2e2" stroke="#e2e2e2"></path><path d="M437 438L498 446L496 319Z" fill="#5e5e5e" stroke="#5e5e5e"></path><path d="M496 319L498 446L636 299Z" fill="#777777" stroke="#777777"></path><path d="M636 299L742 297L685 265Z" fill="#777777" stroke="#777777"></path><path d="M322 258L437 438L370 242Z" fill="#ababab" stroke="#ababab"></path><path d="M474 460L512 463L498 446Z" fill="#777777" stroke="#777777"></path><path d="M498 446L518 466L636 299Z" fill="#e2e2e2" stroke="#e2e2e2"></path><path d="M437 438L474 460L498 446Z" fill="#919191" stroke="#919191"></path><path d="M474 460L518 466L512 463Z" fill="#777777" stroke="#777777"></path><path d="M512 463L518 466L498 446Z" fill="#919191" stroke="#919191"></path><path d="M539 4L443 208L569 213Z" fill="#303030" stroke="#303030"></path><path d="M443 208L380 60L370 242Z" fill="#c6c6c6" stroke="#c6c6c6"></path><path d="M701 453L742 297L636 299Z" fill="#c6c6c6" stroke="#c6c6c6"></path><path d="M685 265L850 166L645 189Z" fill="#777777" stroke="#777777"></path><path d="M258 148L277 221L370 242Z" fill="#919191" stroke="#919191"></path><path d="M322 258L251 381L437 438Z" fill="#5e5e5e" stroke="#5e5e5e"></path><path d="M593 0L569 213L645 189Z" fill="#5e5e5e" stroke="#5e5e5e"></path><path d="M593 0L539 4L569 213Z" fill="#1b1b1b" stroke="#1b1b1b"></path><path d="M539 4L463 0L443 208Z" fill="#ababab" stroke="#ababab"></path><path d="M606 0L593 0L645 189Z" fill="#1b1b1b" stroke="#1b1b1b"></path><path d="M539 4L593 0L463 0Z" fill="#303030" stroke="#303030"></path><path d="M643 8L606 0L645 189Z" fill="#ababab" stroke="#ababab"></path><path d="M364 0L309 74L380 60Z" fill="#e2e2e2" stroke="#e2e2e2"></path><path d="M380 60L309 74L370 242Z" fill="#c6c6c6" stroke="#c6c6c6"></path><path d="M309 74L258 148L370 242Z" fill="#5e5e5e" stroke="#5e5e5e"></path><path d="M518 466L701 453L636 299Z" fill="#5e5e5e" stroke="#5e5e5e"></path><path d="M763 14L643 8L645 189Z" fill="#919191" stroke="#919191"></path><path d="M198 268L322 258L277 221Z" fill="#000000" stroke="#000000"></path><path d="M198 268L251 381L322 258Z" fill="#1b1b1b" stroke="#1b1b1b"></path><path d="M440 600L518 466L474 460Z" fill="#ababab" stroke="#ababab"></path><path d="M463 0L364 0L380 60Z" fill="#ababab" stroke="#ababab"></path><path d="M258 148L198 268L277 221Z" fill="#ababab" stroke="#ababab"></path><path d="M364 0L283 0L309 74Z" fill="#303030" stroke="#303030"></path><path d="M309 74L233 25L258 148Z" fill="#777777" stroke="#777777"></path><path d="M258 148L128 118L198 268Z" fill="#e2e2e2" stroke="#e2e2e2"></path><path d="M850 166L763 14L645 189Z" fill="#e2e2e2" stroke="#e2e2e2"></path><path d="M643 8L790 0L606 0Z" fill="#000000" stroke="#000000"></path><path d="M880 224L850 166L742 297Z" fill="#5e5e5e" stroke="#5e5e5e"></path><path d="M742 297L850 166L685 265Z" fill="#474747" stroke="#474747"></path><path d="M440 600L599 595L518 466Z" fill="#777777" stroke="#777777"></path><path d="M518 466L599 595L701 453Z" fill="#777777" stroke="#777777"></path><path d="M440 600L474 460L407 600Z" fill="#000000" stroke="#000000"></path><path d="M407 600L474 460L437 438Z" fill="#474747" stroke="#474747"></path><path d="M283 0L233 25L309 74Z" fill="#919191" stroke="#919191"></path><path d="M252 600L407 600L437 438Z" fill="#1b1b1b" stroke="#1b1b1b"></path><path d="M900 311L880 224L742 297Z" fill="#e2e2e2" stroke="#e2e2e2"></path><path d="M801 491L742 297L701 453Z" fill="#ffffff" stroke="#ffffff"></path><path d="M719 579L801 491L701 453Z" fill="#ababab" stroke="#ababab"></path><path d="M793 0L790 0L763 14Z" fill="#ababab" stroke="#ababab"></path><path d="M763 14L790 0L643 8Z" fill="#303030" stroke="#303030"></path><path d="M793 0L763 14L850 166Z" fill="#303030" stroke="#303030"></path><path d="M900 0L793 0L850 166Z" fill="#777777" stroke="#777777"></path><path d="M689 600L719 579L701 453Z" fill="#474747" stroke="#474747"></path><path d="M599 595L689 600L701 453Z" fill="#c6c6c6" stroke="#c6c6c6"></path><path d="M440 600L689 600L599 595Z" fill="#ffffff" stroke="#ffffff"></path><path d="M689 600L697 597L719 579Z" fill="#e2e2e2" stroke="#e2e2e2"></path><path d="M900 435L900 311L742 297Z" fill="#ababab" stroke="#ababab"></path><path d="M900 311L900 186L880 224Z" fill="#ffffff" stroke="#ffffff"></path><path d="M880 224L900 186L850 166Z" fill="#777777" stroke="#777777"></path><path d="M900 186L900 181L850 166Z" fill="#ababab" stroke="#ababab"></path><path d="M233 25L128 118L258 148Z" fill="#474747" stroke="#474747"></path><path d="M80 335L159 456L251 381Z" fill="#474747" stroke="#474747"></path><path d="M251 381L252 600L437 438Z" fill="#ababab" stroke="#ababab"></path><path d="M80 335L251 381L198 268Z" fill="#777777" stroke="#777777"></path><path d="M900 521L900 435L801 491Z" fill="#ffffff" stroke="#ffffff"></path><path d="M801 491L900 435L742 297Z" fill="#000000" stroke="#000000"></path><path d="M764 600L801 491L719 579Z" fill="#ffffff" stroke="#ffffff"></path><path d="M689 600L764 600L697 597Z" fill="#ababab" stroke="#ababab"></path><path d="M697 597L764 600L719 579Z" fill="#c6c6c6" stroke="#c6c6c6"></path><path d="M159 456L217 570L251 381Z" fill="#c6c6c6" stroke="#c6c6c6"></path><path d="M217 570L252 600L251 381Z" fill="#e2e2e2" stroke="#e2e2e2"></path><path d="M42 246L80 335L198 268Z" fill="#5e5e5e" stroke="#5e5e5e"></path><path d="M159 456L166 555L217 570Z" fill="#303030" stroke="#303030"></path><path d="M764 600L792 600L801 491Z" fill="#1b1b1b" stroke="#1b1b1b"></path><path d="M85 474L166 555L159 456Z" fill="#ababab" stroke="#ababab"></path><path d="M217 570L146 600L252 600Z" fill="#ababab" stroke="#ababab"></path><path d="M900 181L900 0L850 166Z" fill="#777777" stroke="#777777"></path><path d="M128 118L47 195L198 268Z" fill="#ffffff" stroke="#ffffff"></path><path d="M47 195L42 246L198 268Z" fill="#ffffff" stroke="#ffffff"></path><path d="M80 335L85 474L159 456Z" fill="#000000" stroke="#000000"></path><path d="M792 600L900 521L801 491Z" fill="#777777" stroke="#777777"></path><path d="M0 380L85 474L80 335Z" fill="#1b1b1b" stroke="#1b1b1b"></path><path d="M79 600L146 600L166 555Z" fill="#c6c6c6" stroke="#c6c6c6"></path><path d="M166 555L146 600L217 570Z" fill="#919191" stroke="#919191"></path><path d="M42 246L0 255L80 335Z" fill="#303030" stroke="#303030"></path><path d="M47 195L0 255L42 246Z" fill="#e2e2e2" stroke="#e2e2e2"></path><path d="M128 118L0 180L47 195Z" fill="#ffffff" stroke="#ffffff"></path><path d="M47 195L0 180L0 255Z" fill="#ababab" stroke="#ababab"></path><path d="M233 25L61 0L128 118Z" fill="#1b1b1b" stroke="#1b1b1b"></path><path d="M283 0L61 0L233 25Z" fill="#919191" stroke="#919191"></path><path d="M0 29L0 180L128 118Z" fill="#303030" stroke="#303030"></path><path d="M792 600L900 600L900 521Z" fill="#ffffff" stroke="#ffffff"></path><path d="M0 255L0 380L80 335Z" fill="#303030" stroke="#303030"></path><path d="M85 474L79 600L166 555Z" fill="#ffffff" stroke="#ffffff"></path><path d="M0 517L79 600L85 474Z" fill="#5e5e5e" stroke="#5e5e5e"></path><path d="M61 0L0 29L128 118Z" fill="#ababab" stroke="#ababab"></path><path d="M61 0L0 0L0 29Z" fill="#ffffff" stroke="#ffffff"></path><path d="M0 380L0 517L85 474Z" fill="#777777" stroke="#777777"></path><path d="M0 517L0 600L79 600Z" fill="#000000" stroke="#000000"></path></g></svg>